<svg width="486" height="486" viewBox="0 0 486 486" fill="none" xmlns="http://www.w3.org/2000/svg">
  <g clip-path="url(#clip0_101_9)">
    <circle cx="243" cy="243" r="243" fill="#fe3d0d" />
    <g clip-path="url(#clip1_101_9)">
      <path
        d="M147.697 203.79C160.831 203.79 171.516 193.083 171.516 179.923C171.517 176.997 170.978 174.097 169.927 171.367L199.696 149.685C203.304 151.776 207.398 152.876 211.565 152.872C219.026 152.872 225.694 149.414 230.065 144.016L251.627 148.716C251.625 148.864 251.616 149.011 251.616 149.16C251.616 162.32 262.301 173.027 275.435 173.027C288.568 173.027 299.253 162.32 299.253 149.16C299.253 148.234 299.195 147.323 299.092 146.424L322.632 134.891C326.931 139.12 332.817 141.735 339.303 141.735C352.436 141.735 363.121 131.028 363.121 117.867C363.121 104.707 352.436 94 339.303 94C326.169 94 315.484 104.707 315.484 117.867C315.484 118.793 315.543 119.704 315.645 120.603L292.105 132.136C287.806 127.907 281.921 125.293 275.434 125.293C268.194 125.293 261.703 128.551 257.33 133.676L235.381 128.892C235.32 115.784 224.661 105.138 211.566 105.138C198.432 105.138 187.748 115.845 187.748 129.005C187.748 132.02 188.314 134.903 189.336 137.561L159.567 159.243C155.959 157.152 151.865 156.052 147.697 156.055C134.564 156.055 123.879 166.762 123.879 179.923C123.879 193.083 134.564 203.79 147.697 203.79Z"
        fill="white" />
      <path
        d="M363.121 375.105V203.79H315.484V375.105H299.252V244.099H251.616V375.105H235.384V218.11H187.748V375.105H171.516V262.132H123.879V375.105H108V391.016H379V375.105H363.121Z"
        fill="white" />
    </g>
  </g>
  <defs>
    <clipPath id="clip0_101_9">
      <rect width="486" height="486" fill="white" />
    </clipPath>
    <clipPath id="clip1_101_9">
      <rect width="271" height="297.016" fill="white" transform="translate(108 94)" />
    </clipPath>
  </defs>
</svg>